<svg width="23" height="23" viewBox="0 0 23 23" fill="none" xmlns="http://www.w3.org/2000/svg">
<g clip-path="url(#clip0)">
<path d="M11.18 0C5.00087 0 0 5.0003 0 11.18C0 17.3591 5.0003 22.36 11.18 22.36C17.3591 22.36 22.36 17.3597 22.36 11.18C22.36 5.00087 17.3597 0 11.18 0ZM11.18 20.8693C5.83731 20.8693 1.49065 16.5227 1.49065 11.18C1.49065 5.83727 5.83731 1.49065 11.18 1.49065C16.5227 1.49065 20.8693 5.83731 20.8693 11.18C20.8693 16.5227 16.5227 20.8693 11.18 20.8693Z" fill="#737373"/>
<path d="M16.2173 10.4346H11.9254V6.14266C11.9254 5.73105 11.5917 5.39731 11.18 5.39731C10.7684 5.39731 10.4347 5.73101 10.4347 6.14266V10.4346H6.14269C5.73108 10.4346 5.39734 10.7683 5.39734 11.18C5.39734 11.5916 5.73104 11.9253 6.14269 11.9253H10.4347V16.2173C10.4347 16.6289 10.7684 16.9627 11.18 16.9627C11.5917 16.9627 11.9254 16.629 11.9254 16.2173V11.9253H16.2173C16.629 11.9253 16.9627 11.5916 16.9627 11.18C16.9627 10.7683 16.629 10.4346 16.2173 10.4346Z" fill="#737373"/>
</g>
<defs>
<clipPath id="clip0">
<rect width="22.36" height="22.36" fill="white"/>
</clipPath>
</defs>
</svg>
