<svg width="23" height="23" viewBox="0 0 23 23" fill="none" xmlns="http://www.w3.org/2000/svg">
<g clip-path="url(#clip0)">
<path d="M21.7221 13.6123C21.3984 13.6123 21.136 13.8747 21.136 14.1984V19.403C21.1348 20.3736 20.3483 21.1604 19.3775 21.1615H2.93075C1.95994 21.1604 1.17345 20.3736 1.1723 19.403V4.12857C1.17345 3.15776 1.95994 2.37126 2.93075 2.37012H8.13512C8.45888 2.37012 8.72127 2.10772 8.72127 1.78397C8.72127 1.46021 8.45888 1.19781 8.13512 1.19781H2.93075C1.31288 1.19965 0.00183172 2.5107 0 4.12857V19.403C0.00183172 21.0209 1.31288 22.332 2.93075 22.3338H19.3775C20.9954 22.332 22.3065 21.0209 22.3083 19.403V14.1987C22.3083 13.8749 22.0459 13.6123 21.7221 13.6123Z" fill="white"/>
<path d="M9.16547 10.5279L17.7239 1.96918L20.4841 4.72935L11.9256 13.2881L9.16547 10.5279Z" fill="white"/>
<path d="M7.76901 14.6845L10.8193 13.8396L8.61389 11.6342L7.76901 14.6845Z" fill="white"/>
<path d="M21.2472 0.518447C20.6746 -0.0528206 19.7475 -0.0528206 19.1749 0.518447L18.5533 1.14009L21.3134 3.90026L21.9351 3.27862C22.5066 2.70598 22.5066 1.7789 21.9351 1.20626L21.2472 0.518447Z" fill="white"/>
</g>
<defs>
<clipPath id="clip0">
<rect width="22.3636" height="22.3636" fill="white"/>
</clipPath>
</defs>
</svg>
