<svg width="23" height="23" viewBox="0 0 23 23" fill="none" xmlns="http://www.w3.org/2000/svg">
<g clip-path="url(#clip0)">
<path d="M9.3183 1.34973H13.0553V1.97854H14.4049V1.26171C14.4051 0.566028 13.8394 0 13.144 0H9.22959C8.53425 0 7.96857 0.566028 7.96857 1.26171V1.97854H9.3183V1.34973Z" fill="white"/>
<path d="M17.5216 7.32596H4.85201C4.50485 7.32596 4.23156 7.62211 4.25954 7.96824L5.31875 21.0657C5.37778 21.7969 5.98765 22.36 6.72035 22.36H15.6531C16.3858 22.36 16.9957 21.7969 17.0547 21.0655L18.1139 7.96824C18.1421 7.62211 17.8688 7.32596 17.5216 7.32596ZM7.91979 20.963C7.90563 20.9639 7.89147 20.9644 7.87748 20.9644C7.52367 20.9644 7.22667 20.6889 7.20466 20.331L6.54088 9.57864C6.51802 9.20658 6.80104 8.88637 7.17293 8.86352C7.54363 8.841 7.8652 9.12333 7.88806 9.49556L8.55166 20.2479C8.57469 20.62 8.29168 20.94 7.91979 20.963ZM11.8692 20.2895C11.8692 20.6621 11.5671 20.9642 11.1943 20.9642C10.8216 20.9642 10.5195 20.6621 10.5195 20.2895V9.53702C10.5195 9.16427 10.8216 8.86215 11.1943 8.86215C11.5669 8.86215 11.8692 9.16427 11.8692 9.53702V20.2895ZM15.8327 9.57677L15.199 20.3291C15.178 20.6877 14.8805 20.9642 14.526 20.9642C14.5127 20.9642 14.4992 20.9639 14.4857 20.9632C14.1137 20.9412 13.8298 20.6218 13.8518 20.2498L14.4854 9.49727C14.5072 9.12521 14.8256 8.84134 15.1987 8.86334C15.5707 8.88518 15.8546 9.2047 15.8327 9.57677Z" fill="white"/>
<path d="M19.8554 5.24336L19.4122 3.91478C19.2953 3.56455 18.9674 3.32828 18.5981 3.32828H3.7754C3.40624 3.32828 3.07818 3.56455 2.9615 3.91478L2.5183 5.24336C2.43283 5.49959 2.54406 5.76094 2.75167 5.89127C2.83628 5.94433 2.93642 5.97623 3.04645 5.97623H19.3272C19.4372 5.97623 19.5375 5.94433 19.622 5.8911C19.8296 5.76077 19.9408 5.49942 19.8554 5.24336Z" fill="white"/>
</g>
<defs>
<clipPath id="clip0">
<rect width="22.36" height="22.36" fill="white"/>
</clipPath>
</defs>
</svg>
