<svg width="18" height="18" viewBox="0 0 18 18" fill="none" xmlns="http://www.w3.org/2000/svg">
<g clip-path="url(#clip0)">
<path d="M12.6052 3.74124L7.14265 4.60374C7.00293 4.62559 6.9 4.74606 6.9 4.88751V5.83223V6.61251V10.5455C6.56392 10.2471 6.10823 10.0625 5.60625 10.0625C4.57585 10.0625 3.7375 10.8362 3.7375 11.7875C3.7375 12.7388 4.57585 13.5125 5.60625 13.5125C6.62199 13.5125 7.44942 12.7601 7.4727 11.8275C7.47299 11.8237 7.475 11.8206 7.475 11.8168V6.85803L12.3625 6.08638V8.82079C12.0264 8.52208 11.5707 8.33751 11.0688 8.33751C10.0384 8.33751 9.2 9.11117 9.2 10.0625C9.2 11.0138 10.0384 11.7875 11.0688 11.7875C12.0992 11.7875 12.9375 11.0138 12.9375 10.0625V5.75001V4.31251V4.02501C12.9375 3.94106 12.9007 3.86113 12.8366 3.80651C12.7728 3.75188 12.6885 3.72802 12.6052 3.74124ZM5.60625 12.9375C4.89297 12.9375 4.3125 12.4217 4.3125 11.7875C4.3125 11.1533 4.89297 10.6375 5.60625 10.6375C6.31954 10.6375 6.9 11.1533 6.9 11.7875C6.9 12.4217 6.31954 12.9375 5.60625 12.9375ZM7.475 6.27613V5.83223V5.13303L12.3625 4.36109V5.50419L7.475 6.27613ZM11.0688 11.2125C10.3555 11.2125 9.775 10.6967 9.775 10.0625C9.775 9.42828 10.3555 8.91251 11.0688 8.91251C11.782 8.91251 12.3625 9.42828 12.3625 10.0625C12.3625 10.6967 11.782 11.2125 11.0688 11.2125Z" fill="white"/>
<path d="M17.25 4.02501H16.1V2.87501H14.95V1.72501H2.3V2.87501H1.15V4.02501H0V13.225H1.15V14.375H2.3V15.525H14.95V14.375H16.1V13.225H17.25V4.02501ZM0.575 12.65V4.60001H1.15V12.65H0.575ZM1.725 13.8V13.225V4.02501V3.45001H2.3V13.8H1.725ZM14.375 14.95H2.875V14.375V2.87501V2.30001H14.375V2.87501V14.375V14.95ZM15.525 13.8H14.95V3.45001H15.525V4.02501V13.225V13.8ZM16.675 12.65H16.1V4.60001H16.675V12.65Z" fill="white"/>
</g>
<defs>
<clipPath id="clip0">
<rect width="17.25" height="17.25" fill="white"/>
</clipPath>
</defs>
</svg>
