<svg width="18" height="19" viewBox="0 0 18 19" fill="none" xmlns="http://www.w3.org/2000/svg">
<g clip-path="url(#clip0)">
<path d="M13.8326 9.43369C14.933 8.54341 15.6379 7.18246 15.6379 5.65986C15.6379 2.98433 13.4614 0.807861 10.7859 0.807861H2.69916V2.96434H3.77738V15.9031H2.69916V18.0596H10.7859C13.4615 18.0596 15.6379 15.8831 15.6379 13.2075C15.6379 11.6849 14.933 10.324 13.8326 9.43369ZM10.7859 15.9031H5.93382V10.5119H10.7859C12.2721 10.5119 13.4814 11.7213 13.4814 13.2075C13.4814 14.6937 12.2721 15.9031 10.7859 15.9031ZM10.7859 8.35547H5.93382V2.96434H10.7859C12.2721 2.96434 13.4814 4.17367 13.4814 5.6599C13.4814 7.14614 12.2721 8.35547 10.7859 8.35547Z" fill="white"/>
</g>
<defs>
<clipPath id="clip0">
<rect x="0.542694" y="0.807861" width="17.2517" height="17.2517" fill="white"/>
</clipPath>
</defs>
</svg>
