<svg width="18" height="18" viewBox="0 0 18 18" fill="none" xmlns="http://www.w3.org/2000/svg">
<g clip-path="url(#clip0)">
<path d="M16.5284 7.7625H15.525V5.96045C15.525 5.52747 15.1725 5.175 14.7396 5.175H13.8V4.48098L13.6577 4.33866C13.6574 4.33866 13.6574 4.33837 13.6574 4.33809L11.5598 2.24049L9.31903 0H2.3V3.1625H0.78545C0.352475 3.1625 0 3.51498 0 3.94795V16.508H0.001725C0.0002875 16.6698 0.0506 16.8282 0.1518 16.9608C0.292675 17.1448 0.506 17.25 0.737438 17.25H13.6057C13.938 17.25 14.2307 17.026 14.31 16.7288L17.25 8.66784V8.61695C17.25 8.12187 16.9464 7.7625 16.5284 7.7625ZM14.7396 5.75C14.8554 5.75 14.95 5.8443 14.95 5.96045V7.7625H13.8V5.75H14.7396ZM9.4875 0.981812L12.8185 4.3125H9.4875V0.981812ZM2.875 0.575H8.9125V4.8875H13.225V5.175V7.7625H3.66016C3.61905 7.7625 3.57851 7.76595 3.53884 7.77256C3.25881 7.81914 3.02536 8.02326 2.95579 8.28374L2.875 8.50569V3.1625V0.575ZM0.575 3.94795C0.575 3.8318 0.669588 3.7375 0.78545 3.7375H2.3V10.0726L0.575 14.7772V3.94795ZM13.7623 16.5551C13.7434 16.6255 13.679 16.675 13.6057 16.675H0.737438C0.667575 16.675 0.62675 16.635 0.608638 16.6112C0.590525 16.5876 0.562637 16.5376 0.573275 16.4939L2.3 11.7582V11.7596L3.496 8.48096L3.50347 8.45739C3.52245 8.38695 3.58714 8.3375 3.66016 8.3375H13.225H13.8H15.525H16.5284C16.6376 8.3375 16.6655 8.49447 16.6727 8.57296L13.7623 16.5551Z" fill="white"/>
<path d="M4.6 4.8875H7.475C7.6337 4.8875 7.7625 4.75899 7.7625 4.6C7.7625 4.44101 7.6337 4.3125 7.475 4.3125H4.6C4.4413 4.3125 4.3125 4.44101 4.3125 4.6C4.3125 4.75899 4.4413 4.8875 4.6 4.8875Z" fill="white"/>
<path d="M4.6 2.87499H7.475C7.6337 2.87499 7.7625 2.74648 7.7625 2.58749C7.7625 2.4285 7.6337 2.29999 7.475 2.29999H4.6C4.4413 2.29999 4.3125 2.4285 4.3125 2.58749C4.3125 2.74648 4.4413 2.87499 4.6 2.87499Z" fill="white"/>
<path d="M4.6 6.90001H11.5C11.6587 6.90001 11.7875 6.7715 11.7875 6.61251C11.7875 6.45352 11.6587 6.32501 11.5 6.32501H4.6C4.4413 6.32501 4.3125 6.45352 4.3125 6.61251C4.3125 6.7715 4.4413 6.90001 4.6 6.90001Z" fill="white"/>
</g>
<defs>
<clipPath id="clip0">
<rect width="17.25" height="17.25" fill="white"/>
</clipPath>
</defs>
</svg>
