<svg width="18" height="19" viewBox="0 0 18 19" fill="none" xmlns="http://www.w3.org/2000/svg">
<g clip-path="url(#clip0)">
<path d="M16.5873 6.9897H15.5838V5.18748C15.5838 4.75417 15.2313 4.40195 14.7983 4.40195H7.6811L6.24346 2.38925H0.842824C0.409806 2.38925 0.0572968 2.74176 0.0572968 3.17478V15.736H0.0590219C0.0575843 15.8979 0.107902 16.0563 0.209112 16.1889C0.35 16.3729 0.563346 16.4781 0.794806 16.4781H13.6643C13.9967 16.4781 14.2894 16.2541 14.3687 15.9568L17.309 7.89513V7.84424C17.309 7.34911 17.0054 6.9897 16.5873 6.9897ZM0.632353 3.17478C0.632353 3.05862 0.72695 2.96431 0.842824 2.96431H5.94731L7.38495 4.977H14.798C14.9142 4.977 15.0085 5.07131 15.0085 5.18748V6.9897H3.71782C3.67641 6.9897 3.6353 6.99315 3.59533 7.00005C3.31557 7.04692 3.08295 7.25106 3.01366 7.5107L0.632353 14.0051V3.17478ZM13.821 15.7832C13.802 15.8536 13.7373 15.9031 13.6643 15.9031H0.794806C0.724937 15.9031 0.684108 15.8631 0.665994 15.8392C0.647879 15.8157 0.619989 15.7656 0.630628 15.7219L3.56083 7.68466C3.5798 7.61421 3.6445 7.56476 3.71753 7.56476H15.5838H16.5873C16.6965 7.56476 16.7244 7.72175 16.7316 7.80024L13.821 15.7832Z" fill="white"/>
</g>
<defs>
<clipPath id="clip0">
<rect x="0.0572968" y="0.807861" width="17.2517" height="17.2517" fill="white"/>
</clipPath>
</defs>
</svg>
