<svg width="18" height="19" viewBox="0 0 18 19" fill="none" xmlns="http://www.w3.org/2000/svg">
<g clip-path="url(#clip0)">
<path d="M16.4096 1.95094C14.8864 0.427161 12.4069 0.42651 10.8831 1.95094L7.88957 4.94444C7.76224 5.07177 7.76224 5.27759 7.88957 5.40492C8.01691 5.53226 8.22273 5.53226 8.35006 5.40492L11.3436 2.41143C11.9558 1.79918 12.7735 1.46212 13.646 1.46212C14.5191 1.46212 15.3365 1.79951 15.9488 2.41175C16.561 3.024 16.8984 3.84174 16.8984 4.71452C16.8984 5.5873 16.561 6.40471 15.9488 7.01696L12.0346 10.9321C10.7652 12.2015 8.69852 12.2015 7.42876 10.9321C7.30143 10.8047 7.09561 10.8047 6.96827 10.9321C6.84094 11.0594 6.84094 11.2652 6.96827 11.3926C7.73033 12.1543 8.73076 12.5353 9.73153 12.5353C10.7323 12.5353 11.7331 12.1543 12.4948 11.3926L16.4096 7.47744C17.1449 6.7421 17.5501 5.76087 17.5501 4.71419C17.5501 3.66751 17.1449 2.68629 16.4096 1.95094Z" fill="white"/>
<path d="M9.0408 13.9252L6.50779 16.4583C5.89554 17.0705 5.0778 17.4079 4.20503 17.4079C3.33225 17.4079 2.51483 17.0705 1.90226 16.4583C0.632825 15.1888 0.632825 13.1225 1.90226 11.8527L5.58682 8.16817C6.85658 6.89874 8.92291 6.89939 10.1923 8.16817C10.3197 8.29551 10.5255 8.29551 10.6528 8.16817C10.7802 8.04084 10.7802 7.83502 10.6528 7.70768C9.12971 6.18391 6.65011 6.18325 5.12633 7.70768L1.44145 11.3926C0.7061 12.1279 0.3013 13.1091 0.3013 14.1558C0.3013 15.2025 0.706425 16.1837 1.44177 16.9187C2.17712 17.6538 3.15834 18.0592 4.2047 18.0592C5.25171 18.0592 6.23293 17.6541 6.96795 16.9187L9.50096 14.3857C9.6283 14.2584 9.6283 14.0526 9.50096 13.9252C9.37363 13.7979 9.16813 13.7982 9.0408 13.9252Z" fill="white"/>
</g>
<defs>
<clipPath id="clip0">
<rect x="0.299988" y="0.807861" width="17.2517" height="17.2517" fill="white"/>
</clipPath>
</defs>
</svg>
