<svg width="18" height="19" viewBox="0 0 18 19" fill="none" xmlns="http://www.w3.org/2000/svg">
<g clip-path="url(#clip0)">
<path d="M5.32334 8.81597C6.34219 8.81597 7.17093 7.98722 7.17093 6.96871C7.17093 5.94953 6.34219 5.12079 5.32334 5.12079C4.3045 5.12079 3.47575 5.94953 3.47575 6.96838C3.47575 7.98722 4.3045 8.81597 5.32334 8.81597ZM5.32334 5.78432C5.97625 5.78432 6.50741 6.3158 6.50741 6.96838C6.50741 7.62096 5.97625 8.15244 5.32334 8.15244C4.67043 8.15244 4.13928 7.62129 4.13928 6.96871C4.13928 6.31613 4.67043 5.78432 5.32334 5.78432Z" fill="white"/>
<path d="M1.01003 0.807861V14.0784V18.0595H17.5982V14.0784V0.807861H1.01003ZM1.67355 1.47139H16.9347V10.3384L13.5095 7.19862C13.4445 7.13923 13.3589 7.1097 13.2707 7.11169C13.1827 7.11567 13.0998 7.15449 13.0404 7.21952L9.79113 10.7783L8.21758 9.20479C8.0935 9.08104 7.89511 9.07474 7.76373 9.19019L2.21167 14.0784H1.67355V1.47139ZM16.9347 17.396H1.67355V14.7419H16.9347V17.396ZM3.21592 14.0784L7.96809 9.89452L11.3859 13.312C11.5156 13.4417 11.7253 13.4417 11.855 13.312C11.9847 13.1823 11.9847 12.9726 11.855 12.8429L10.2602 11.2481L13.3062 7.91257L16.9347 11.2385V14.0784H3.21592Z" fill="white"/>
</g>
<defs>
<clipPath id="clip0">
<rect x="0.67865" y="0.807861" width="17.2517" height="17.2517" fill="white"/>
</clipPath>
</defs>
</svg>
