<svg width="18" height="18" viewBox="0 0 18 18" fill="none" xmlns="http://www.w3.org/2000/svg">
<g clip-path="url(#clip0)">
<path d="M16.9711 16.3875H0.296136C0.137436 16.3875 0.00863647 16.259 0.00863647 16.1V4.6C0.00863647 4.44101 0.137436 4.3125 0.296136 4.3125H16.9711C17.1298 4.3125 17.2586 4.44101 17.2586 4.6V16.1C17.2586 16.259 17.1298 16.3875 16.9711 16.3875ZM0.583637 15.8125H16.6836V4.8875H0.583637V15.8125Z" fill="white"/>
<path d="M15.2461 4.8875H2.02113C1.86243 4.8875 1.73363 4.75899 1.73363 4.6V2.87499C1.73363 2.71601 1.86243 2.58749 2.02113 2.58749H15.2461C15.4048 2.58749 15.5336 2.71601 15.5336 2.87499V4.6C15.5336 4.75899 15.4048 4.8875 15.2461 4.8875ZM2.30863 4.3125H14.9586V3.1625H2.30863V4.3125Z" fill="white"/>
<path d="M13.5211 3.16249H3.74612C3.58742 3.16249 3.45862 3.03398 3.45862 2.87499V1.14999C3.45862 0.991 3.58742 0.862488 3.74612 0.862488H13.5211C13.6798 0.862488 13.8086 0.991 13.8086 1.14999V2.87499C13.8086 3.03398 13.6798 3.16249 13.5211 3.16249ZM4.03362 2.58749H13.2336V1.43749H4.03362V2.58749Z" fill="white"/>
<path d="M7.20331 12.9553C7.10297 12.9553 7.00264 12.9289 6.91092 12.8763C6.72951 12.7719 6.62112 12.5853 6.62112 12.3775V8.05288C6.62112 7.84473 6.72951 7.65843 6.91092 7.55407C7.09176 7.44971 7.31687 7.45057 7.49742 7.55493L11.2208 9.71751C11.4011 9.82187 11.5086 10.0082 11.5086 10.2152C11.5086 10.4222 11.4011 10.6082 11.2208 10.7128L7.49742 12.8751C7.40542 12.9286 7.30422 12.9553 7.20331 12.9553V12.9553ZM7.20849 8.05173L7.19612 12.3772V12.3783L10.9319 10.2155L7.20849 8.05173Z" fill="white"/>
</g>
<defs>
<clipPath id="clip0">
<rect width="17.25" height="17.25" fill="white"/>
</clipPath>
</defs>
</svg>
